<svg xmlns="http://www.w3.org/2000/svg" width="442" height="255.4" viewBox="0 0 442 255.4">
    <defs>
        <clipPath id="clip-path">
            <path id="Rectangle_7374" fill="none" d="M0 0H442V255.4H0z"/>
        </clipPath>
        <style>
            .cls-3,.cls-4,.cls-5,.cls-7{fill:none}.cls-2{clip-path:url(#clip-path)}.cls-3{stroke:#879196}.cls-3,.cls-4,.cls-5{stroke-linejoin:round}.cls-3,.cls-4,.cls-5,.cls-7{stroke-width:2px}.cls-4{stroke:#527fff}.cls-5{stroke:#869095}.cls-7{stroke:#869196;stroke-miterlimit:10}.cls-8{fill:#527fff}
        </style>
    </defs>
    <g id="graphic-cog-financial-fetures-1" transform="translate(221 127.7)">
        <g id="graphic-cog-financial-fetures-1-2" transform="translate(-221 -127.7)">
            <g id="Group_4388" class="cls-2">
                <path id="Line_2484" d="M0 0L73 0" class="cls-3" transform="translate(0 217.4)"/>
            </g>
            <path id="Line_2485" d="M0 0L29 0" class="cls-3" transform="translate(88 217.4)"/>
            <path id="Line_2486" d="M0 0L110 0" class="cls-3" transform="translate(258 217.4)"/>
            <path id="Line_2487" d="M0 0L11 0" class="cls-3" transform="translate(379 217.4)"/>
            <g id="Group_4389" class="cls-2">
                <path id="Line_2488" d="M0 0L39 0" class="cls-3" transform="translate(403 217.4)"/>
                <path id="Path_7422" d="M168.1 70.7a85.2 85.2 0 0 0-31 22.3" class="cls-3"/>
                <path id="Path_7423" d="M278.3 114.1a85.1 85.1 0 0 0-102.5-46.2" class="cls-3"/>
                <path id="Path_7424" d="M132 99.3a84.7 84.7 0 0 0-11.1 20.9 63.8 63.8 0 0 0-77.1 52.6" class="cls-3"/>
                <path id="Path_7425" d="M269 120.9a56.3 56.3 0 0 1 91.9 30.4" class="cls-3"/>
                <path id="Line_2489" d="M0 0L96.5 0" class="cls-4" transform="translate(147.9 71.1)"/>
                <path id="Line_2490" d="M0 0L48.1 0" class="cls-4" transform="translate(257.5 71.1)"/>
                <path id="Line_2491" d="M0 0L96.6 0" class="cls-4" transform="translate(122.4 41.7)"/>
                <path id="Line_2492" d="M0 0L48.1 0" class="cls-4" transform="translate(225.2 41.7)"/>
                <path id="Line_2493" d="M0 0L48 0" class="cls-4" transform="translate(140.1 100.2)"/>
                <path id="Line_2494" d="M0 0L48.1 0" class="cls-4" transform="translate(193.9 100.2)"/>
                <path id="Line_2495" d="M0 0L116 0" class="cls-4" transform="translate(132.7 85.7)"/>
                <path id="Line_2496" d="M0 0L32.4 0" class="cls-4" transform="translate(280 85.7)"/>
                <path id="Line_2497" d="M0 0L57.7 0" class="cls-4" transform="translate(222.4 12.6)"/>
                <path id="Line_2498" d="M0 0L57.7 0" class="cls-4" transform="translate(172.5 27.1)"/>
                <path id="Line_2499" d="M0 0L10.2 0" class="cls-4" transform="translate(236.1 27.1)"/>
                <path id="Line_2500" d="M0 0L48 0" class="cls-4" transform="translate(140.1 56.2)"/>
                <path id="Line_2501" d="M0 0L57.7 0" class="cls-4" transform="translate(196 56.2)"/>
                <path id="Line_2502" d="M0 0L10.2 0" class="cls-4" transform="translate(259.6 56.2)"/>
                <path id="Path_7426" d="M169.3 232.2a1.9 1.9 0 1 1-1.9-1.9 1.9 1.9 0 0 1 1.9 1.9z" class="cls-5"/>
                <path id="Path_7427" d="M201 157.3a1.9 1.9 0 1 1-1.9-1.9 1.9 1.9 0 0 1 1.9 1.9z" class="cls-5"/>
                <path id="Path_7428" d="M244.2 230.9a1.9 1.9 0 1 1-1.9-1.9 1.9 1.9 0 0 1 1.9 1.9z" class="cls-5"/>
                <path id="Path_7429" d="M213.7 200.4a3.2 3.2 0 1 1-3.2-3.2 3.2 3.2 0 0 1 3.2 3.2z" class="cls-5"/>
                <path id="Path_7430" d="M230.2 175a1.9 1.9 0 1 1-1.9-1.9 1.9 1.9 0 0 1 1.9 1.9z" class="cls-5"/>
                <path id="Path_7431" d="M147.7 219.5a1.9 1.9 0 1 1-1.9-1.9 1.9 1.9 0 0 1 1.9 1.9z" class="cls-5"/>
                <path id="Path_7432" d="M201 252.5a1.9 1.9 0 1 1-1.9-1.9 1.9 1.9 0 0 1 1.9 1.9z" class="cls-5"/>
                <path id="Line_2503" d="M0 0L66 0" class="cls-5" transform="translate(175 230.9)"/>
                <path id="Line_2504" d="M13.4 52.4L0 0" class="cls-5" transform="translate(228.2 176.6)"/>
                <path id="Line_2505" d="M79.7 0L0 43.1" class="cls-4" transform="translate(146.7 175.8)"/>
                <path id="Line_2506" d="M0 0L29.5 19.2" class="cls-4" transform="translate(168.4 232.6)"/>
                <path id="Line_2507" d="M0 0L14.7 7.5" class="cls-5" transform="translate(146.5 220.8)"/>
                <path id="Line_2508" d="M0 91.4L0 0" class="cls-4" transform="translate(199.1 159.8)"/>
                <path id="Line_2509" d="M31 0L0 71.4" class="cls-4" transform="translate(167.6 159.1)"/>
                <path id="Line_2510" d="M67.3 0L0 0" class="cls-5" transform="translate(158.5 175)"/>
                <path id="Path_7433" d="M157.9 175a1.9 1.9 0 1 1-1.9-1.9 1.9 1.9 0 0 1 1.9 1.9z" class="cls-5"/>
                <path id="Line_2511" d="M10.4 0L0 41.5" class="cls-5" transform="translate(145.7 176.6)"/>
                <path id="Line_2512" d="M0 0L6.4 0" class="cls-5" transform="translate(211.8 244.9)"/>
                <path id="Line_2513" d="M0 0L6.4 0" class="cls-5" transform="translate(220.7 244.9)"/>
                <path id="Line_2514" d="M0 0L12.7 0" class="cls-5" transform="translate(142 232.2)"/>
                <path id="Line_2515" d="M6.4 0L0 0" class="cls-5" transform="translate(177.5 166.2)"/>
                <path id="Line_2516" d="M5.1 0L0 0" class="cls-5" transform="translate(166.1 159.8)"/>
                <path id="Line_2517" d="M5.1 0L0 0" class="cls-5" transform="translate(158.5 159.8)"/>
                <path id="Line_2518" d="M6.4 0L0 0" class="cls-5" transform="translate(148.3 159.8)"/>
                <path id="Line_2519" d="M6.4 0L0 0" class="cls-5" transform="translate(139.4 159.8)"/>
                <circle id="Ellipse_206" cx="4.4" cy="4.4" r="4.4" class="cls-5" transform="translate(233.4 244.9)"/>
                <path id="Rectangle_7375" d="M0 0H11.2V11.21H0z" class="cls-4" transform="translate(50.8 56.9)"/>
                <path id="Rectangle_7376" d="M0 0H11.2V11.21H0z" class="cls-3" transform="translate(67 56.9)"/>
                <path id="Rectangle_7377" d="M0 0H11.2V11.21H0z" class="cls-3" transform="translate(50.8 73)"/>
                <path id="Rectangle_7378" d="M0 0H11.2V11.21H0z" class="cls-4" transform="translate(67 73)"/>
                <path id="Line_2520" d="M0 44.9L0 0" class="cls-3" transform="translate(33.3 49.9)"/>
                <path id="Line_2521" d="M0 0L75.7 0" class="cls-3" transform="translate(20 49.9)"/>
                <path id="Path_7434" d="M94.1 94.7a1.6 1.6 0 0 0 1.6-1.5V41.6a1.6 1.6 0 0 0-1.6-1.5H21.6a1.6 1.6 0 0 0-1.6 1.5v51.6a1.6 1.6 0 0 0 1.6 1.5z" class="cls-3"/>
                <path id="Line_2522" d="M0 0L3.5 0" class="cls-4" transform="translate(23.5 45)"/>
                <path id="Line_2523" d="M0 0L3.5 0" class="cls-5" transform="translate(29.1 45)"/>
                <path id="Line_2524" d="M0 0L3.5 0" class="cls-4" transform="translate(34.7 45)"/>
                <path id="Path_7435" d="M429.5 116.6V81.9a1.4 1.4 0 0 0-1.5-1.4h-59a1.4 1.4 0 0 0-1.5 1.4v34.6" class="cls-4"/>
                <path id="Path_7436" fill="none" stroke="#869196" stroke-linejoin="round" stroke-width="2px" d="M426.6 120.6a5.9 5.9 0 0 0 3.7-1.3l.2-.2v-3.5h-64v3.5l.2.2a5.9 5.9 0 0 0 3.7 1.3z"/>
                <path id="Path_7437" d="M386.7 58.7c-.1 6 1.8 13.1 11.3 13.1s11.3-6.8 11.7-13.1" class="cls-7"/>
                <path id="Path_7438" d="M392.6 48.2s7 4.2 13.4 2.9c0 0 2 9.1 4.4 8.1s3.4-7 1.4-11.6 1.2-4.7-.4-9.6c-.6-1.7-5.9 2.8-7.4 1.9a15.3 15.3 0 0 0-6.3-1.9 14.3 14.3 0 0 0-8.4 2.8c-2.5 2.1-3.9 3.6-4.8 8.5-.5 2.6-.1 10.5 2.6 10.9.7.1-1.2-4.1 2.2-6.5s.6-8.2 3.3-5.5z" class="cls-7"/>
                <path id="Path_7439" d="M402.5 78l2-4.7v-2.9" class="cls-7"/>
                <path id="Path_7440" d="M391.4 70.4v2.9l3.1 4.7" class="cls-7"/>
                <path id="Path_7441" d="M421.5 80.6c-5-5-14.4-7.5-16.8-7.8" class="cls-7"/>
                <path id="Path_7442" d="M391.5 72.6c-2.8.4-12.9 3-15.9 8" class="cls-7"/>
                <path id="Path_7443" d="M402.8 41.1c-.8.8-3.5 1.6-5.7 1.6" class="cls-7"/>
                <path id="Path_7444" d="M320.8 34.7a5.7 5.7 0 1 0 11.4 0c0-3.1-2.6-5.2-5.7-5.7s-5.7-2.5-5.7-5.7a5.7 5.7 0 1 1 11.4 0" class="cls-5"/>
                <path id="Line_2525" d="M0 0L0 32.8" class="cls-5" transform="translate(325.8 12.2)"/>
                <path id="Path_7445" d="M309.6 45.6a24 24 0 0 1 28.6-38" class="cls-4"/>
                <path id="Path_7446" d="M330.9 11l-.4-1.4 7.1-2.2-2.7-6.9 1.4-.5 3.2 8.4z" class="cls-8"/>
                <path id="Path_7447" d="M343.5 11.6a24 24 0 0 1-28.5 38" class="cls-4"/>
                <path id="Path_7448" d="M322.2 46.2l.4 1.4-7.1 2.2 2.7 6.9-1.4.5-3.2-8.4z" class="cls-8"/>
            </g>
        </g>
    </g>
</svg>
