<svg xmlns="http://www.w3.org/2000/svg" width="808.8" height="457.67" viewBox="0 0 808.8 457.67">
    <defs>
        <clipPath id="clip-path">
            <path id="Rectangle_7168" fill="none" d="M0 0H808.8V457.67H0z"/>
        </clipPath>
        <style>
            .cls-10,.cls-3,.cls-4,.cls-6,.cls-7{fill:none}.cls-3,.cls-7{stroke:#879196}.cls-10,.cls-3,.cls-4{stroke-miterlimit:10}.cls-10,.cls-4,.cls-6{stroke:#527fff}.cls-6,.cls-7{stroke-linejoin:round}.cls-10,.cls-6,.cls-7{stroke-width:2px}.cls-10{stroke-dasharray:4 6}
        </style>
    </defs>
    <g id="graphic-financial-services">
        <g id="graphic-financial-services-2" transform="translate(404.4 228.835)">
            <g id="Group_4251" clip-path="url(#clip-path)" transform="translate(-404.4 -228.835)">
                <path id="Path_6956" d="M688.3 119.4h4.6a3 3 0 0 0 3-3V.5h-82.3v7.6" class="cls-3"/>
                <path id="Line_2135" d="M0 0L30.5 0" class="cls-3" transform="translate(613.6 88.9)"/>
                <path id="Line_2136" d="M0 0L45.8 0" class="cls-3" transform="translate(613.6 99.6)"/>
                <path id="Line_2137" d="M0 0L15.3 0" class="cls-3" transform="translate(613.6 110.3)"/>
                <path id="Path_6957" d="M615.2 66.1a6.1 6.1 0 1 0 12.2 0c0-3.4-2.8-5.5-6.1-6.1s-6.1-2.7-6.1-6.1a6.1 6.1 0 1 1 12.2 0" class="cls-4"/>
                <path id="Line_2138" d="M0 0L0 33.5" class="cls-4" transform="translate(621.2 43.2)"/>
                <path id="Path_6958" fill="#879196" d="M682.8 13.7v114.9a2.1 2.1 0 0 1-2 2.1h-76.3a2.1 2.1 0 0 1-2-2.1V13.7h80.3m1-1h-82.4v115.9a3 3 0 0 0 3 3.1h76.2a3 3 0 0 0 3-3.1z"/>
                <path id="Line_2139" d="M0 0L145.2 0" class="cls-6" transform="translate(249.3 95.8)"/>
                <path id="Line_2140" d="M0 0L72.3 0" class="cls-6" transform="translate(414.3 95.8)"/>
                <path id="Line_2141" d="M0 0L145.2 0" class="cls-6" transform="translate(211 51.5)"/>
                <path id="Line_2142" d="M0 0L72.4 0" class="cls-6" transform="translate(365.6 51.5)"/>
                <path id="Line_2143" d="M0 0L72.3 0" class="cls-6" transform="translate(237.5 139.5)"/>
                <path id="Line_2144" d="M0 0L72.3 0" class="cls-6" transform="translate(318.5 139.5)"/>
                <path id="Line_2145" d="M0 0L174.6 0" class="cls-6" transform="translate(226.4 117.7)"/>
                <path id="Line_2146" d="M0 0L86.9 0" class="cls-6" transform="translate(410 117.7)"/>
                <path id="Line_2147" d="M0 0L86.9 0" class="cls-6" transform="translate(361.4 7.8)"/>
                <path id="Line_2148" d="M0 0L87 0" class="cls-6" transform="translate(286.2 29.6)"/>
                <path id="Line_2149" d="M0 0L15.3 0" class="cls-6" transform="translate(382 29.6)"/>
                <path id="Line_2150" d="M0 0L72.3 0" class="cls-6" transform="translate(237.5 73.3)"/>
                <path id="Line_2151" d="M0 0L86.9 0" class="cls-6" transform="translate(321.6 73.3)"/>
                <path id="Line_2152" d="M0 0L15.4 0" class="cls-6" transform="translate(417.3 73.3)"/>
                <path id="Path_6959" d="M260.5 54.5a120.8 120.8 0 0 0-44 31.7" class="cls-7"/>
                <path id="Path_6960" d="M416.8 115.9a120.7 120.7 0 0 0-145.3-65.4" class="cls-7"/>
                <path id="Path_6961" d="M558.9 316.9h64.9a52.4 52.4 0 1 0 0-104.8 52.3 52.3 0 0 0-36.8 15.1" class="cls-7"/>
                <path id="Line_2153" d="M0 0L118.9 0" class="cls-7" transform="translate(107.4 316.9)"/>
                <path id="Path_6962" d="M96.2 316.9a59.4 59.4 0 1 1 15.9-116.7" class="cls-7"/>
                <path id="Path_6963" d="M209.4 95a120.2 120.2 0 0 0-15.7 29.6 90.5 90.5 0 0 0-109.4 74.7" class="cls-7"/>
                <path id="Path_6964" d="M609.5 214.4a49.735 49.735 0 0 0-76.8-49.8 79.9 79.9 0 0 0-116-48.5" class="cls-7"/>
                <path id="Path_6965" d="M403.7 125.6A79.8 79.8 0 0 1 534 168.7" class="cls-7"/>
                <path id="Path_6966" fill="#527fff" d="M209.2 316.8a40.5 40.5 0 1 1-40.5-40.5 40.5 40.5 0 0 1 40.5 40.5"/>
                <path id="Path_6967" fill="#fff" d="M188.9 302.3l-26.1 26.2-14.3-14.3-2 2 16.3 16.2 28.1-28.2-2-1.9"/>
                <path id="Path_6968" d="M259.8 393.9H25a24.1 24.1 0 0 1-24-24V143.4a24.1 24.1 0 0 1 24-24h104.3" class="cls-10"/>
                <path id="Path_6969" d="M522.8 359.9h275a10 10 0 0 1 10 10v27a10 10 0 0 1-10 10h-36.2a10 10 0 0 1-10-10v-317a10 10 0 0 0-10-10h-40.7" class="cls-10"/>
                <path id="Rectangle_7165" d="M0 0H27V26.99H0z" class="cls-6" transform="translate(398.3 155.9)"/>
                <path id="Rectangle_7166" d="M0 0H27V26.99H0z" class="cls-6" transform="translate(425.3 167.5)"/>
                <path id="Line_2154" d="M0 0L0 34.7" class="cls-7" transform="translate(398.3 182.9)"/>
                <path id="Line_2155" d="M0 73.2L0 0" class="cls-6" transform="translate(286.4 317.9)"/>
                <path id="Line_2156" d="M0 0L0 66.6" class="cls-6" transform="translate(305.7 320.1)"/>
                <path id="Line_2157" d="M0 73.2L0 0" class="cls-6" transform="translate(336.6 317.9)"/>
                <path id="Line_2158" d="M0 0L0 66.6" class="cls-6" transform="translate(355.8 320.1)"/>
                <path id="Line_2159" d="M0 73.2L0 0" class="cls-6" transform="translate(386.7 317.9)"/>
                <path id="Line_2160" d="M0 0L0 66.6" class="cls-6" transform="translate(406 320.1)"/>
                <path id="Line_2161" d="M0 73.2L0 0" class="cls-6" transform="translate(436.8 317.9)"/>
                <path id="Line_2162" d="M0 0L0 66.6" class="cls-6" transform="translate(456.1 320.1)"/>
                <path id="Line_2163" d="M0 73.2L0 0" class="cls-6" transform="translate(487 317.9)"/>
                <path id="Line_2164" d="M0 0L0 66.6" class="cls-6" transform="translate(506.2 320.1)"/>
                <path id="Path_6970" d="M313.4 298.6v19.3h-34.7v-19.3" class="cls-7"/>
                <path id="Path_6971" d="M363.6 298.6v19.3h-34.7v-19.3" class="cls-7"/>
                <path id="Path_6972" d="M413.7 298.6v19.3H379v-19.3" class="cls-7"/>
                <path id="Path_6973" d="M463.8 298.6v19.3h-34.7v-19.3" class="cls-7"/>
                <path id="Path_6974" d="M513.9 298.6v19.3h-34.7v-19.3" class="cls-7"/>
                <path id="Rectangle_7167" d="M0 0H262.2V38.56H0z" class="cls-7" transform="translate(267.2 418.1)"/>
                <path id="Path_6975" d="M529.4 290.9H267.2v-19.3l133-46.3 129.2 46.3z" class="cls-7"/>
                <path id="Path_6976" d="M313.4 410.4v-19.3h-34.7v19.3" class="cls-7"/>
                <path id="Path_6977" d="M363.6 410.4v-19.3h-34.7v19.3" class="cls-7"/>
                <path id="Path_6978" d="M413.7 410.4v-19.3H379v19.3" class="cls-7"/>
                <path id="Path_6979" d="M463.8 410.4v-19.3h-34.7v19.3" class="cls-7"/>
                <path id="Path_6980" d="M513.9 410.4v-19.3h-34.7v19.3" class="cls-7"/>
            </g>
        </g>
    </g>
</svg>
