<svg xmlns="http://www.w3.org/2000/svg" id="graphic-cog-financial-features-2" width="446.6" height="255.79" viewBox="0 0 446.6 255.79">
    <defs>
        <clipPath id="clip-path">
            <path id="Rectangle_7702" fill="none" d="M0 0H446.6V255.79H0z"/>
        </clipPath>
        <style>
            .cls-3,.cls-4,.cls-5{fill:none}.cls-2{clip-path:url(#clip-path)}.cls-3{stroke:#879196}.cls-3,.cls-4,.cls-5{stroke-linejoin:round;stroke-width:2px}.cls-4{stroke:#527fff}.cls-5{stroke:#869095}
        </style>
    </defs>
    <g id="graphic-cog-financial-features-2-2" transform="translate(223.3 127.895)">
        <g id="Group_4533" transform="translate(-223.3 -127.895)">
            <g id="Group_4531" class="cls-2">
                <path id="Line_2933" d="M0 0L73 0" class="cls-3" transform="translate(0 205.8)"/>
            </g>
            <path id="Line_2934" d="M0 0L29 0" class="cls-3" transform="translate(88 205.8)"/>
            <path id="Line_2935" d="M0 0L110 0" class="cls-3" transform="translate(258 205.8)"/>
            <path id="Line_2936" d="M0 0L11 0" class="cls-3" transform="translate(379 205.8)"/>
            <path id="Line_2937" d="M0 0L39 0" class="cls-3" transform="translate(403 205.8)"/>
            <path id="Line_2938" d="M0 19.9L6.2 0" class="cls-3" transform="translate(51.8 63.1)"/>
            <path id="Line_2939" d="M0 0L24.8 0" class="cls-3" transform="translate(26.9 54.3)"/>
            <path id="Line_2940" d="M0 0L12.5 24.6" class="cls-3" transform="translate(45.1 17.8)"/>
            <path id="Line_2941" d="M9.8 0L0 12.8" class="cls-3" transform="translate(67.3 29.6)"/>
            <g id="Group_4532" class="cls-2">
                <circle id="Ellipse_239" cx="11.2" cy="11.2" r="11.2" class="cls-4" transform="translate(50.7 41.4)"/>
                <path id="Path_7980" d="M16.8 59.3a6.1 6.1 0 1 1 4.35 1.824A6.1 6.1 0 0 1 16.8 59.3z" class="cls-3"/>
                <path id="Path_7981" d="M38.8 16.9a6.1 6.1 0 1 1 4.649.835A6.1 6.1 0 0 1 38.8 16.9z" class="cls-3"/>
                <path id="Line_2942" d="M23.8 14.1L0 0" class="cls-3" transform="translate(71.4 58.1)"/>
                <path id="Path_7982" d="M100.9 69.6a6.1 6.1 0 1 1-6.1 6.1 6.1 6.1 0 0 1 6.1-6.1z" class="cls-3"/>
                <path id="Path_7983" d="M55.6 91.2a6.1 6.1 0 1 0-3.313 3.314A6.1 6.1 0 0 0 55.6 91.2z" class="cls-3"/>
                <path id="Path_7984" d="M76.5 29a6.1 6.1 0 1 1 4.35 1.824A6.1 6.1 0 0 1 76.5 29z" class="cls-3"/>
                <path id="Path_7985" d="M168.1 59.1a85.2 85.2 0 0 0-31 22.3" class="cls-3"/>
                <path id="Path_7986" d="M278.3 102.4a85.1 85.1 0 0 0-102.5-46.1" class="cls-3"/>
                <path id="Path_7987" d="M132 87.7a84.7 84.7 0 0 0-11.1 20.9 63.8 63.8 0 0 0-77.1 52.6" class="cls-3"/>
                <path id="Path_7988" d="M269 109.3a56.3 56.3 0 0 1 91.9 30.4" class="cls-3"/>
                <path id="Line_2943" d="M0 0L96.5 0" class="cls-4" transform="translate(147.9 59.5)"/>
                <path id="Line_2944" d="M0 0L48.1 0" class="cls-4" transform="translate(257.5 59.5)"/>
                <path id="Line_2945" d="M0 0L96.6 0" class="cls-4" transform="translate(122.4 30)"/>
                <path id="Line_2946" d="M0 0L48.1 0" class="cls-4" transform="translate(225.2 30)"/>
                <path id="Line_2947" d="M0 0L48 0" class="cls-4" transform="translate(140.1 88.6)"/>
                <path id="Line_2948" d="M0 0L48.1 0" class="cls-4" transform="translate(193.9 88.6)"/>
                <path id="Line_2949" d="M0 0L116 0" class="cls-4" transform="translate(132.7 74.1)"/>
                <path id="Line_2950" d="M0 0L32.4 0" class="cls-4" transform="translate(280 74.1)"/>
                <path id="Line_2951" d="M0 0L57.7 0" class="cls-4" transform="translate(222.4 1)"/>
                <path id="Line_2952" d="M0 0L57.7 0" class="cls-4" transform="translate(172.5 15.5)"/>
                <path id="Line_2953" d="M0 0L10.2 0" class="cls-4" transform="translate(236.1 15.5)"/>
                <path id="Line_2954" d="M0 0L48 0" class="cls-4" transform="translate(140.1 44.6)"/>
                <path id="Line_2955" d="M0 0L57.7 0" class="cls-4" transform="translate(196 44.6)"/>
                <path id="Line_2956" d="M0 0L10.2 0" class="cls-4" transform="translate(259.6 44.6)"/>
                <path id="Rectangle_7703" d="M0 0H14.5V14.48H0z" class="cls-4" transform="translate(382.5 37.2)"/>
                <path id="Rectangle_7704" d="M0 0H14.5V14.48H0z" class="cls-4" transform="translate(382.5 57.9)"/>
                <path id="Rectangle_7705" d="M0 0H14.5V14.48H0z" class="cls-4" transform="translate(403.2 37.2)"/>
                <path id="Rectangle_7706" d="M0 0H14.5V14.48H0z" class="cls-4" transform="translate(403.2 57.9)"/>
                <rect id="Rectangle_7707" width="91" height="69.28" class="cls-3" rx="2.2" transform="translate(354.6 27.9)"/>
                <path id="Line_2957" d="M0 0L91 0" class="cls-3" transform="translate(354.6 81.6)"/>
                <path id="Line_2958" d="M0 0L30 0" class="cls-3" transform="translate(385.6 88.9)"/>
                <path id="Path_7989" d="M405.3 97.2v12.4H396V97.2" class="cls-3"/>
                <path id="Line_2959" d="M0 0L47.6 0" class="cls-3" transform="translate(376.3 109.6)"/>
                <path id="Line_2960" d="M16.7 0L0 16.7" class="cls-5" transform="translate(144.7 237.5)"/>
                <path id="Line_2961" d="M17.3 0L0 17.4" class="cls-5" transform="translate(223.3 158.2)"/>
                <path id="Path_7990" d="M240.6 247.4v7.4h-7.4" class="cls-5"/>
                <path id="Path_7991" d="M215.9 254.8H201m-32 0h14.7" class="cls-5"/>
                <path id="Path_7992" d="M144.1 215.6V230m0-46.8v14.3" class="cls-5"/>
                <path id="Path_7993" d="M151.5 158.2l-7.4.1v7.4" class="cls-5"/>
                <path id="Path_7994" d="M201 158.2h14.9m-46.8 0h14.7" class="cls-5"/>
                <path id="Line_2962" d="M0 0L0 14.2" class="cls-5" transform="translate(240.6 215.6)"/>
                <path id="Line_2963" d="M0 0L0 14.2" class="cls-5" transform="translate(240.6 183.2)"/>
                <path id="Path_7995" d="M227 158.2h13.6v13.7" class="cls-5"/>
                <path id="Path_7996" d="M157.7 254.8h-13.6v-13.6" class="cls-5"/>
                <path id="Rectangle_7708" d="M0 0H49.5V49.51H0z" class="cls-4" transform="translate(167.6 181.8)"/>
            </g>
        </g>
    </g>
</svg>
