<svg xmlns="http://www.w3.org/2000/svg" id="graphic-cog-financial-secondary" width="675" height="389.8" viewBox="0 0 675 389.8">
    <defs>
        <clipPath id="clip-path">
            <path id="Rectangle_7296" fill="none" d="M0 0H675V389.8H0z"/>
        </clipPath>
        <style>
            .cls-10,.cls-11,.cls-12,.cls-13,.cls-14,.cls-3,.cls-6,.cls-7{fill:none}.cls-12,.cls-3{stroke:#879196}.cls-3,.cls-6,.cls-7{stroke-miterlimit:10}.cls-10,.cls-11,.cls-12,.cls-13,.cls-14,.cls-3,.cls-6,.cls-7{stroke-width:2px}.cls-4{fill:#879196}.cls-5{fill:#879195}.cls-6{stroke:#879195}.cls-10,.cls-7{stroke:#527fff}.cls-9{fill:#527fff}.cls-10,.cls-11,.cls-12,.cls-13,.cls-14{stroke-linejoin:round}.cls-11{stroke:#869196}.cls-13{stroke:#849095}.cls-14{stroke:#869095}
        </style>
    </defs>
    <g id="graphic-cog-financial-secondary-2" transform="translate(337.5 194.9)">
        <g id="Group_4377" clip-path="url(#clip-path)" transform="translate(-337.5 -194.9)">
            <path id="Path_7218" d="M206.9 359.4A136.8 136.8 0 0 1 99.2 200.3" class="cls-3"/>
            <path id="Path_7219" d="M106.2 208.2l-1.7 1.1-5.4-8.2-7.8 5.9-1.2-1.6 9.5-7.2z" class="cls-4"/>
            <path id="Path_7220" d="M312.5 112.9a137 137 0 0 1 57.1 93.5" class="cls-3"/>
            <path id="Path_7221" d="M193.2 94.3a137.4 137.4 0 0 1 97.2 6.1" class="cls-3"/>
            <path id="Path_7222" d="M330.5 320.7a137.4 137.4 0 0 0 39.5-89" class="cls-3"/>
            <path id="Rectangle_7276" d="M0 0H3.5V3.47H0z" class="cls-5" transform="translate(0 88.8)"/>
            <path id="Rectangle_7277" d="M0 0H3.5V3.47H0z" class="cls-5" transform="translate(0 100.9)"/>
            <path id="Rectangle_7278" d="M0 0H3.5V3.47H0z" class="cls-5" transform="translate(0 113)"/>
            <path id="Rectangle_7279" d="M0 0H3.5V3.47H0z" class="cls-5" transform="translate(0 125.2)"/>
            <path id="Rectangle_7280" d="M0 0H3.5V3.47H0z" class="cls-5" transform="translate(0 137.3)"/>
            <path id="Rectangle_7281" d="M0 0H3.5V3.47H0z" class="cls-5" transform="translate(0 149.5)"/>
            <path id="Line_2248" d="M0 0L41.2 0" class="cls-6" transform="translate(10.5 90.3)"/>
            <path id="Line_2249" d="M0 0L30.8 0" class="cls-6" transform="translate(57.6 90.3)"/>
            <path id="Line_2250" d="M0 0L39.9 0" class="cls-7" transform="translate(31.2 102.6)"/>
            <path id="Line_2251" d="M0 0L12.1 0" class="cls-6" transform="translate(20.8 114.8)"/>
            <path id="Line_2252" d="M0 0L67.7 0" class="cls-6" transform="translate(38.1 114.8)"/>
            <path id="Line_2253" d="M0 0L18.7 0" class="cls-6" transform="translate(76.3 102.6)"/>
            <path id="Line_2254" d="M0 0L39.9 0" class="cls-6" transform="translate(31.2 126.8)"/>
            <path id="Line_2255" d="M0 0L12.1 0" class="cls-6" transform="translate(20.8 139.1)"/>
            <path id="Line_2256" d="M0 0L12.2 0" class="cls-6" transform="translate(38.1 139.1)"/>
            <path id="Line_2257" d="M0 0L53.7 0" class="cls-6" transform="translate(55.5 139.1)"/>
            <path id="Line_2258" d="M0 0L18.7 0" class="cls-7" transform="translate(76.3 126.8)"/>
            <path id="Line_2259" d="M0 0L36.4 0" class="cls-7" transform="translate(100.6 126.8)"/>
            <path id="Line_2260" d="M0 0L39.9 0" class="cls-6" transform="translate(15.6 151.1)"/>
            <path id="Line_2261" d="M0 0L18.7 0" class="cls-7" transform="translate(60.7 151.1)"/>
            <path id="Line_2262" d="M0 0L36.4 0" class="cls-6" transform="translate(85 151.1)"/>
            <path id="Rectangle_7282" d="M0 0H3.5V3.47H0z" class="cls-5" transform="translate(0 161.6)"/>
            <path id="Rectangle_7283" d="M0 0H3.5V3.47H0z" class="cls-5" transform="translate(0 173.7)"/>
            <path id="Line_2263" d="M0 0L12.1 0" class="cls-6" transform="translate(20.8 163.3)"/>
            <path id="Line_2264" d="M0 0L67.7 0" class="cls-7" transform="translate(38.1 163.3)"/>
            <path id="Line_2265" d="M0 0L39.9 0" class="cls-6" transform="translate(31.2 175.4)"/>
            <path id="Line_2266" d="M0 0L18.7 0" class="cls-7" transform="translate(76.3 175.4)"/>
            <path id="Line_2267" d="M0 0L36.4 0" class="cls-6" transform="translate(100.6 175.4)"/>
            <path id="Line_2268" fill="none" stroke="#527fff" stroke-dasharray="4 6" stroke-miterlimit="10" stroke-width="2px" d="M0 0L196.4 0" transform="translate(349.8 218.5)"/>
            <path id="Path_7223" d="M539.6 226.7l-1.4-1.4 7.2-6.8-7.2-6.7 1.4-1.4 8.8 8.1z" class="cls-9"/>
            <path id="Rectangle_7284" d="M0 0H19.4V19.44H0z" class="cls-10" transform="translate(477 226.4)"/>
            <path id="Rectangle_7285" d="M0 0H19.4V19.44H0z" class="cls-10" transform="translate(447.8 275.4)"/>
            <path id="Rectangle_7286" d="M0 0H19.4V19.44H0z" class="cls-10" transform="translate(431.6 191.5)"/>
            <path id="Rectangle_7287" d="M0 0H19.4V19.44H0z" class="cls-10" transform="translate(434.9 239.8)"/>
            <path id="Rectangle_7288" d="M0 0H19.4V19.44H0z" class="cls-11" transform="translate(386.3 178.2)"/>
            <path id="Rectangle_7289" d="M0 0H19.4V19.44H0z" class="cls-10" transform="translate(457.5 168.5)"/>
            <path id="Rectangle_7290" d="M0 0H19.4V19.44H0z" class="cls-11" transform="translate(399.2 226.4)"/>
            <path id="Rectangle_7291" d="M0 0H19.4V19.44H0z" class="cls-11" transform="translate(386.3 259.2)"/>
            <path id="Rectangle_7292" d="M0 0H19.4V19.44H0z" class="cls-10" transform="translate(324.4 155.5)"/>
            <path id="Rectangle_7293" d="M0 0H19.4V19.44H0z" class="cls-11" transform="translate(496.4 149)"/>
            <path id="Path_7224" d="M630 202.9v-18.2a1.7 1.7 0 0 1 1.7-1.7h32.6a1.7 1.7 0 0 1 1.7 1.7v23.9" class="cls-12"/>
            <path id="Line_2269" d="M13.6 0L0 0" class="cls-12" transform="translate(641.2 232.7)"/>
            <path id="Path_7225" d="M634 202.9v-14.6a1.2 1.2 0 0 1 1.2-1.3h25.7a1.2 1.2 0 0 1 1.2 1.3v20.4" class="cls-10"/>
            <path id="Line_2270" d="M13.6 0L0 0" class="cls-10" transform="translate(641.2 223.1)"/>
            <path id="Path_7226" d="M650 227.9a1.6 1.6 0 1 1-1.6-1.6 1.6 1.6 0 0 1 1.6 1.6" class="cls-4"/>
            <path id="Path_7227" d="M585.1 242.3v2.8l.2.2a5.4 5.4 0 0 0 3.2 1h52a4.3 4.3 0 0 0 2.6-.9l.4-.3v-2.8z" class="cls-12"/>
            <path id="Path_7228" d="M634.9 237.2a1.1 1.1 0 0 1-1.1 1.1h-37.9a1.1 1.1 0 0 1-1.1-1.1v-25a1.1 1.1 0 0 1 1.1-1.1h37.6a1.1 1.1 0 0 1 1.1 1.1z" class="cls-10"/>
            <rect id="Rectangle_7294" width="48" height="35.23" class="cls-12" rx="1.2" transform="translate(590.7 207)"/>
            <path id="Line_2271" d="M16.8 0L0 0" class="cls-10" transform="translate(657.2 219.1)"/>
            <path id="Line_2272" d="M4.8 0L0 0" class="cls-12" transform="translate(664.4 215.9)"/>
            <path id="Path_7229" d="M671.8 245.5h-12.4a2.2 2.2 0 0 1-2.2-2.2v-27.8a2.8 2.8 0 0 1 2.8-2.8h11.2a2.8 2.8 0 0 1 2.8 2.8v27.8a2.2 2.2 0 0 1-2.2 2.2z" class="cls-12"/>
            <path id="Line_2273" d="M16.8 0L0 0" class="cls-10" transform="translate(657.2 241.5)"/>
            <path id="Path_7230" d="M661.2 215.9a.8.8 0 1 0 .8-.8.8.8 0 0 0-.8.8" class="cls-4"/>
            <path id="Path_7231" d="M563.7 197.9a11.2 11.2 0 1 1 11.2 11.2 11.2 11.2 0 0 1-11.2-11.2" class="cls-3"/>
            <path id="Path_7232" d="M586.1 230.7h-31.2c1.3-21 20-20.8 20-20.8a18.2 18.2 0 0 1 11.2 3.2" class="cls-3"/>
            <path id="Path_7233" d="M312 358.4v-18.3l-10-5.7v-12.5l-18.9-11.5-10.1 6-10-6-19 11.5v12.5l-10 5.7v19l10 5.5v12.6l19.6 11.6 8.8-5.2 9 5.2 19.6-11.6v-12.6z" class="cls-10"/>
            <path id="Path_7234" d="M259 375.8h-8v-15h-14.1" class="cls-13"/>
            <path id="Line_2274" d="M14 0L0 0" class="cls-13" transform="translate(243 327.8)"/>
            <path id="Line_2275" d="M0 12L0 0" class="cls-13" transform="translate(250 327.8)"/>
            <path id="Line_2276" d="M0 68.3L0 0" class="cls-10" transform="translate(273 315.8)"/>
            <path id="Path_7235" d="M260 355.7v-14.9h12" class="cls-13"/>
            <path id="Path_7236" d="M286 359.8h7v-11h19" class="cls-13"/>
            <path id="Path_7237" d="M290 372.8h-6v14.6" class="cls-13"/>
            <circle id="Ellipse_172" cx="3.5" cy="3.5" r="3.5" class="cls-13" transform="translate(256 324.8)"/>
            <circle id="Ellipse_173" cx="3.5" cy="3.5" r="3.5" class="cls-13" transform="translate(246 339.8)"/>
            <circle id="Ellipse_174" cx="3.5" cy="3.5" r="3.5" class="cls-13" transform="translate(257 355.8)"/>
            <circle id="Ellipse_175" cx="3.5" cy="3.5" r="3.5" class="cls-13" transform="translate(259 371.8)"/>
            <circle id="Ellipse_176" cx="3.5" cy="3.5" r="3.5" class="cls-13" transform="translate(279 356.8)"/>
            <circle id="Ellipse_177" cx="3.5" cy="3.5" r="3.5" class="cls-13" transform="translate(290 368.8)"/>
            <path id="Path_7238" d="M290 328.8v4h-17" class="cls-13"/>
            <path id="Line_2277" d="M0 7L0 0" class="cls-13" transform="translate(282 332.8)"/>
            <circle id="Ellipse_178" cx="3.5" cy="3.5" r="3.5" class="cls-13" transform="translate(278 339.8)"/>
            <circle id="Ellipse_179" cx="3.5" cy="3.5" r="3.5" class="cls-13" transform="translate(286 321.8)"/>
            <path id="Path_7239" d="M300.8 129.3V40.1h86.4" class="cls-12"/>
            <path id="Line_2278" d="M0 0L5.8 0" class="cls-12" transform="translate(395.8 40.1)"/>
            <path id="Line_2279" d="M0 0L11.5 0" class="cls-12" transform="translate(408.8 40.1)"/>
            <path id="Path_7240" d="M188.5 261a61.1 61.1 0 0 1-15.9-41.2" class="cls-12"/>
            <path id="Path_7241" d="M292.6 202.2a60.9 60.9 0 0 1 1.6 6.6" class="cls-12"/>
            <path id="Path_7242" d="M187.8 192.8a53.4 53.4 0 0 1 71.1-20.1" class="cls-10"/>
            <path id="Path_7243" d="M244.9 208.9h-71.3a61.3 61.3 0 0 1 114.3-18" class="cls-12"/>
            <path id="Line_2280" d="M0 0L53.4 0" class="cls-12" transform="translate(183.4 230.9)"/>
            <path id="Line_2281" d="M0 0L59.7 0" class="cls-10" transform="translate(197.7 219.9)"/>
            <path id="Path_7244" d="M281 219.9h14.1a61.3 61.3 0 0 1-98.5 48.7" class="cls-12"/>
            <path id="Path_7245" d="M276.7 219.9a6.7 6.7 0 1 1-6.7-6.7 6.7 6.7 0 0 1 6.7 6.7z" class="cls-12"/>
            <path id="Path_7246" d="M264.9 224.6c-5.5 4.7-11.7 9.3-18.3 13.9-33.7 23.1-66.8 33.5-73.8 23.2-2.7-4-1.2-10.5 3.7-18.3" class="cls-10"/>
            <path id="Path_7247" d="M275.7 175c9.5-2 16.4-1.2 19.2 2.9 4.8 7-3.6 21.6-19.9 37.5" class="cls-10"/>
            <path id="Path_7248" d="M462.1 48.5a8.65 8.65 0 1 0 17.3 0c0-4.8-3.9-7.9-8.6-8.6s-8.6-3.9-8.6-8.6a8.65 8.65 0 1 1 17.3 0" class="cls-14"/>
            <path id="Line_2282" d="M0 0L0 50" class="cls-14" transform="translate(470.5 14.2)"/>
            <path id="Path_7249" d="M445 65a36.5 36.5 0 0 1 44.2-57.3" class="cls-10"/>
            <path id="Path_7250" d="M481.8 10.8l-.3-1.5 7.1-1.8-2.3-7 1.4-.5 2.9 8.5z" class="cls-9"/>
            <path id="Path_7251" d="M496.6 13.4a36.5 36.5 0 0 1 9.5 16.5" class="cls-11"/>
            <path id="Path_7252" d="M484.4 73.1a36.6 36.6 0 0 1-32-2.3" class="cls-11"/>
            <path id="Path_7253" fill="#869196" d="M459.8 67.7l.3 1.4L453 71l2.4 7-1.5.5-2.8-8.6z"/>
            <path id="Line_2283" d="M0 0L15 0" class="cls-14" transform="translate(496.5 66.6)"/>
            <path id="Line_2284" d="M0 0L22 0" class="cls-10" transform="translate(496.5 72.6)"/>
            <path id="Line_2285" d="M0 0L8 0" class="cls-14" transform="translate(496.5 77.6)"/>
            <path id="Path_7254" d="M490.5 92.4V35.2l2.9 3.2 3-3.2 2.9 3.2 2.9-3.2 3 3.2 2.9-3.2 2.9 3.2 2.9-3.2 3 3.2 2.9-3.2 2.9 3.2 3-3.2 2.9 3.2 2.9-3.2v57.2l-2.9-3.2-2.9 3.2-3-3.2-2.9 3.2-2.9-3.2-3 3.2-2.9-3.2-2.9 3.2-2.9-3.2-3 3.2-2.9-3.2-2.9 3.2-3-3.2z" class="cls-14"/>
            <path id="Rectangle_7295" d="M0 0H8V8H0z" class="cls-10" transform="translate(496.5 52.6)"/>
        </g>
    </g>
</svg>
