<svg xmlns="http://www.w3.org/2000/svg" width="483.9" height="222.3" viewBox="0 0 483.9 222.3">
    <defs>
        <clipPath id="clip-path">
            <path id="Rectangle_7591" fill="none" d="M0 0H483.9V222.3H0z"/>
        </clipPath>
        <style>
            .cls-10,.cls-3,.cls-4,.cls-6,.cls-7,.cls-8{fill:none}.cls-3,.cls-8{stroke:#869095}.cls-3,.cls-4,.cls-6,.cls-7{stroke-linejoin:round}.cls-10,.cls-3,.cls-4,.cls-6,.cls-7,.cls-8{stroke-width:2px}.cls-4{stroke:#527fff}.cls-5{fill:#527fff}.cls-6{stroke:#869196}.cls-10,.cls-7{stroke:#879196}.cls-8{stroke-linecap:square}.cls-10,.cls-8{stroke-miterlimit:10}
        </style>
    </defs>
    <g id="graphic-cog-financial-benefits-1">
        <g id="graphic-cog-financial-benefits-1-2" transform="translate(241.95 111.15)">
            <g id="graphic-cog-financial-benefits-1-3" clip-path="url(#clip-path)" transform="translate(-241.95 -111.15)">
                <path id="Path_7848" d="M27.3 93.4a5.7 5.7 0 0 0 11.4 0c0-3.1-2.6-5.2-5.7-5.7s-5.7-2.5-5.7-5.7a5.7 5.7 0 0 1 11.4 0" class="cls-3"/>
                <path id="Line_2813" d="M0 0L0 32.9" class="cls-3" transform="translate(32.3 70.9)"/>
                <path id="Path_7849" d="M16 104.3a24 24 0 0 1 28.6-38" class="cls-4"/>
                <path id="Path_7850" d="M37.4 69.8l-.4-1.5 7-2.1-2.6-6.9 1.4-.5 3.2 8.4z" class="cls-5"/>
                <path id="Path_7851" d="M50 70.4a24 24 0 0 1-28.5 38" class="cls-4"/>
                <path id="Path_7852" d="M28.7 104.9l.4 1.5-7.1 2.1 2.7 6.9-1.4.6-3.3-8.4z" class="cls-5"/>
                <path id="Rectangle_7570" d="M0 0H10.5V10.51H0z" class="cls-6" transform="translate(299.7 92.1)"/>
                <path id="Rectangle_7571" d="M0 0H10.5V10.51H0z" class="cls-6" transform="translate(315.5 118.6)"/>
                <path id="Rectangle_7572" d="M0 0H10.5V10.51H0z" class="cls-6" transform="translate(324.2 73.2)"/>
                <path id="Rectangle_7573" d="M0 0H10.5V10.51H0z" class="cls-4" transform="translate(322.5 99.3)"/>
                <path id="Rectangle_7574" d="M0 0H10.5V10.51H0z" class="cls-6" transform="translate(348.8 66)"/>
                <path id="Rectangle_7575" d="M0 0H10.5V10.51H0z" class="cls-4" transform="translate(310.2 60.8)"/>
                <path id="Rectangle_7576" d="M0 0H10.5V10.51H0z" class="cls-6" transform="translate(341.8 92.1)"/>
                <path id="Rectangle_7577" d="M0 0H10.5V10.51H0z" class="cls-6" transform="translate(348.8 109.8)"/>
                <path id="Rectangle_7578" d="M0 0H10.5V10.51H0z" class="cls-4" transform="translate(382.2 53.7)"/>
                <path id="Rectangle_7579" d="M0 0H10.5V10.51H0z" class="cls-6" transform="translate(289.2 50.2)"/>
                <path id="Rectangle_7580" d="M0 0H10.5V10.51H0z" class="cls-6" transform="translate(88.7 92.1)"/>
                <path id="Rectangle_7581" d="M0 0H10.5V10.51H0z" class="cls-6" transform="translate(104.5 118.6)"/>
                <path id="Rectangle_7582" d="M0 0H10.5V10.51H0z" class="cls-6" transform="translate(113.2 73.2)"/>
                <path id="Rectangle_7583" d="M0 0H10.5V10.51H0z" class="cls-4" transform="translate(111.5 99.3)"/>
                <path id="Rectangle_7584" d="M0 0H10.5V10.51H0z" class="cls-6" transform="translate(137.8 66)"/>
                <path id="Rectangle_7585" d="M0 0H10.5V10.51H0z" class="cls-4" transform="translate(99.2 60.8)"/>
                <path id="Rectangle_7586" d="M0 0H10.5V10.51H0z" class="cls-6" transform="translate(130.8 92.1)"/>
                <path id="Rectangle_7587" d="M0 0H10.5V10.51H0z" class="cls-6" transform="translate(137.8 109.8)"/>
                <path id="Rectangle_7588" d="M0 0H10.5V10.51H0z" class="cls-4" transform="translate(171.2 53.7)"/>
                <path id="Rectangle_7589" d="M0 0H10.5V10.51H0z" class="cls-6" transform="translate(78.2 50.2)"/>
                <path id="Line_2814" d="M0 0L73 0" class="cls-7" transform="translate(27.5 193)"/>
                <path id="Line_2815" d="M0 0L68.2 0" class="cls-7" transform="translate(115.5 193)"/>
                <path id="Line_2816" d="M0 0L110 0" class="cls-7" transform="translate(285.5 193)"/>
                <path id="Line_2817" d="M0 0L11 0" class="cls-7" transform="translate(406.5 193)"/>
                <path id="Line_2818" d="M0 0L39 0" class="cls-7" transform="translate(430.5 193)"/>
                <path id="Line_2819" d="M3.7 0L0 0" class="cls-8" transform="translate(421 42.8)"/>
                <path id="Line_2820" d="M3.7 0L0 0" class="cls-8" transform="translate(421 18.8)"/>
                <path id="Line_2821" d="M1.9 0L0 0" class="cls-8" transform="translate(421 54.8)"/>
                <path id="Line_2822" d="M1.9 0L0 0" class="cls-8" transform="translate(421 30.8)"/>
                <path id="Line_2823" d="M72 0L0 0" class="cls-8" transform="translate(410.9 66.8)"/>
                <path id="Path_7853" fill="none" stroke="#527fff" stroke-linecap="square" stroke-linejoin="round" stroke-width="2px" d="M424.7 63.1l22.2-27.7H458l19.2-26.2"/>
                <path id="Path_7854" d="M479.4 17.3l-1.6.2-.9-7.8-7.8 1.4-.3-1.5 9.5-1.8z" class="cls-5"/>
                <path id="Line_2824" d="M0 50.7L0 0" class="cls-8" transform="translate(416.4 12.4)"/>
                <path id="Path_7855" d="M11.1 34.3v.7h-3v-.7" class="cls-10"/>
                <path id="Line_2825" d="M0 0L34 0" class="cls-10" transform="translate(40 38)"/>
                <path id="Line_2826" d="M0 0L27.4 0" class="cls-10" transform="translate(0 38)"/>
                <path id="Path_7856" d="M56.3 12.8a28.8 28.8 0 0 1 9.6 21.5" class="cls-10"/>
                <path id="Path_7857" d="M8.1 34.3a28.9 28.9 0 0 1 46.4-22.9" class="cls-10"/>
                <path id="Path_7858" d="M47.4 2.6a33.2 33.2 0 0 1 6.7 3" class="cls-4"/>
                <path id="Path_7859" d="M7.6 18.8a33.3 33.3 0 0 1 36.8-17" class="cls-4"/>
                <path id="Path_7860" d="M50.3 19.1a22.5 22.5 0 0 1 5.9 15.2" class="cls-10"/>
                <path id="Path_7861" d="M11.1 34.3a22.6 22.6 0 0 1 37-17.4" class="cls-10"/>
                <path id="Path_7862" d="M65.9 34.3v.7h-9.7v-.7" class="cls-10"/>
                <circle id="Ellipse_227" cx="7.4" cy="7.4" r="7.4" class="cls-10" transform="translate(26.3 26.9)"/>
                <path id="Path_7863" d="M29.2 34.3a4.4 4.4 0 1 1 4.4 4.4" class="cls-4"/>
                <path id="Path_7864" d="M36.3 27.6L61.1 5.4l1.1 1.1L40 31.3" class="cls-4"/>
                <path id="Line_2827" d="M0 4.4L8 0" class="cls-4" transform="translate(53.2 18.8)"/>
                <path id="Line_2828" d="M0 2.3L9.6 0" class="cls-4" transform="translate(55.5 26.5)"/>
                <path id="Path_7865" fill="none" stroke="#527fff" stroke-miterlimit="10" d="M232.9 180.4a1.8 1.8 0 1 1-1.8-1.8 1.8 1.8 0 0 1 1.8 1.8z"/>
                <path id="Path_7866" d="M274.1 168.3v14.9a2.1 2.1 0 0 1-2.1 2.1h-81.8a2.1 2.1 0 0 1-2.1-2.1v-57.8a2.1 2.1 0 0 1 2.1-2.1H272a2.1 2.1 0 0 1 2.1 2.1v5.9" class="cls-7"/>
                <path id="Line_2829" d="M0 0L85 0" class="cls-4" transform="translate(188.1 175.3)"/>
                <path id="Line_2830" d="M0 0L0 10.9" class="cls-7" transform="translate(235.1 185.3)"/>
                <path id="Line_2831" d="M0 10.7L0 0" class="cls-7" transform="translate(226.1 185.5)"/>
                <path id="Rectangle_7590" d="M0 0H40V5H0z" class="cls-7" transform="translate(211.1 196.3)"/>
                <circle id="Ellipse_228" cx="15" cy="15" r="15" class="cls-4" transform="translate(255.1 134.3)"/>
                <path id="Path_7867" d="M271.1 156.3l7-7h-18" class="cls-4"/>
                <path id="Line_2832" d="M0 0L7 7" class="cls-7" transform="translate(271.1 142.3)"/>
                <path id="Path_7868" d="M270.7 86.1a10 10 0 1 1 7 17.1h-84a14.009 14.009 0 1 1-1-28h.2a16 16 0 0 1 27.3-16" class="cls-7"/>
                <path id="Path_7869" d="M211.7 53.9a28 28 0 0 1 55 7.4q0 .9-.1 1.9h.1a13 13 0 0 1 11 20" class="cls-7"/>
            </g>
        </g>
    </g>
</svg>
