<svg xmlns="http://www.w3.org/2000/svg" id="graphic-cog-financial-benefits-2" width="475.6" height="187" viewBox="0 0 475.6 187">
    <defs>
        <clipPath id="clip-path">
            <path id="Rectangle_7765" fill="none" d="M0 0H475.6V187H0z"/>
        </clipPath>
        <style>
            .cls-2,.cls-3,.cls-4,.cls-6,.cls-7,.cls-8{fill:none}.cls-2{stroke:#527fff}.cls-2,.cls-3,.cls-4,.cls-6{stroke-linejoin:round}.cls-2,.cls-3,.cls-4,.cls-6,.cls-7,.cls-8{stroke-width:2px}.cls-3{stroke:#869095}.cls-4,.cls-7{stroke:#879196}.cls-6,.cls-8{stroke:#869196}.cls-7,.cls-8{stroke-miterlimit:10}
        </style>
    </defs>
    <g id="graphic-cog-financial-benefits-2-2" transform="translate(237.8 93.5)">
        <g id="Group_4547" transform="translate(-237.8 -93.5)">
            <path id="Rectangle_7742" d="M0 0H39.6V6.18H0z" class="cls-2" transform="translate(219.5 15.2)"/>
            <path id="Rectangle_7743" d="M0 0H17.3V6.18H0z" class="cls-2" transform="translate(219.5 25.7)"/>
            <path id="Rectangle_7744" d="M0 0H17.3V6.18H0z" class="cls-2" transform="translate(241.7 25.7)"/>
            <path id="Line_3088" d="M0 0L17.3 0" class="cls-3" transform="translate(219.5 36.2)"/>
            <path id="Line_3089" d="M0 0L17.3 0" class="cls-3" transform="translate(241.7 36.2)"/>
            <path id="Line_3090" d="M0 0L17.3 0" class="cls-3" transform="translate(241.7 39.3)"/>
            <path id="Line_3091" d="M0 0L17.3 0" class="cls-3" transform="translate(241.7 42.4)"/>
            <path id="Line_3092" d="M0 0L17.3 0" class="cls-3" transform="translate(219.5 39.3)"/>
            <path id="Line_3093" d="M0 0L17.3 0" class="cls-3" transform="translate(219.5 42.4)"/>
            <path id="Line_3094" d="M0 0L6.2 0" class="cls-2" transform="translate(203.4 15.2)"/>
            <path id="Line_3095" d="M0 0L6.2 0" class="cls-3" transform="translate(203.4 22)"/>
            <path id="Line_3096" d="M0 0L6.2 0" class="cls-2" transform="translate(203.4 28.8)"/>
            <path id="Line_3097" d="M0 0L6.2 0" class="cls-3" transform="translate(203.4 36.2)"/>
            <path id="Line_3098" d="M0 0L66.8 0" class="cls-4" transform="translate(200.9 9.7)"/>
            <g id="Group_4546" clip-path="url(#clip-path)">
                <path id="Path_8065" d="M266.3 49.2a1.4 1.4 0 0 0 1.4-1.4V2.4a1.4 1.4 0 0 0-1.4-1.4h-63.9a1.4 1.4 0 0 0-1.4 1.4v45.5a1.4 1.4 0 0 0 1.4 1.4z" class="cls-4"/>
                <path id="Line_3099" d="M0 0L3.1 0" class="cls-3" transform="translate(204 5.3)"/>
                <path id="Line_3100" d="M0 0L3.1 0" class="cls-3" transform="translate(209 5.3)"/>
                <path id="Line_3101" d="M0 0L3.1 0" class="cls-3" transform="translate(213.9 5.3)"/>
                <path id="Line_3102" d="M0 39.5L0 0" class="cls-4" transform="translate(212.1 9.7)"/>
                <path id="Rectangle_7745" d="M0 0H10.5V10.51H0z" class="cls-6" transform="translate(299.7 72.8)"/>
                <path id="Rectangle_7746" d="M0 0H10.5V10.51H0z" class="cls-6" transform="translate(315.5 99.3)"/>
                <path id="Rectangle_7747" d="M0 0H10.5V10.51H0z" class="cls-6" transform="translate(324.2 54)"/>
                <path id="Rectangle_7748" d="M0 0H10.5V10.51H0z" class="cls-2" transform="translate(322.5 80)"/>
                <path id="Rectangle_7749" d="M0 0H10.5V10.51H0z" class="cls-6" transform="translate(348.8 46.8)"/>
                <path id="Rectangle_7750" d="M0 0H10.5V10.51H0z" class="cls-2" transform="translate(310.2 41.5)"/>
                <path id="Rectangle_7751" d="M0 0H10.5V10.51H0z" class="cls-6" transform="translate(341.8 72.8)"/>
                <path id="Rectangle_7752" d="M0 0H10.5V10.51H0z" class="cls-6" transform="translate(348.8 90.5)"/>
                <path id="Rectangle_7753" d="M0 0H10.5V10.51H0z" class="cls-2" transform="translate(382.2 34.5)"/>
                <path id="Rectangle_7754" d="M0 0H10.5V10.51H0z" class="cls-6" transform="translate(289.2 31)"/>
                <path id="Rectangle_7755" d="M0 0H10.5V10.51H0z" class="cls-6" transform="translate(88.7 72.8)"/>
                <path id="Rectangle_7756" d="M0 0H10.5V10.51H0z" class="cls-6" transform="translate(104.5 99.3)"/>
                <path id="Rectangle_7757" d="M0 0H10.5V10.51H0z" class="cls-6" transform="translate(113.2 54)"/>
                <path id="Rectangle_7758" d="M0 0H10.5V10.51H0z" class="cls-2" transform="translate(111.5 80)"/>
                <path id="Rectangle_7759" d="M0 0H10.5V10.51H0z" class="cls-6" transform="translate(137.8 46.8)"/>
                <path id="Rectangle_7760" d="M0 0H10.5V10.51H0z" class="cls-2" transform="translate(99.2 41.5)"/>
                <path id="Rectangle_7761" d="M0 0H10.5V10.51H0z" class="cls-6" transform="translate(130.8 72.8)"/>
                <path id="Rectangle_7762" d="M0 0H10.5V10.51H0z" class="cls-6" transform="translate(137.8 90.5)"/>
                <path id="Rectangle_7763" d="M0 0H10.5V10.51H0z" class="cls-2" transform="translate(171.2 34.5)"/>
                <path id="Rectangle_7764" d="M0 0H10.5V10.51H0z" class="cls-6" transform="translate(78.2 31)"/>
                <path id="Line_3103" d="M0 0L73 0" class="cls-4" transform="translate(27.5 173.8)"/>
                <path id="Line_3104" d="M0 0L68.2 0" class="cls-4" transform="translate(115.5 173.8)"/>
                <path id="Line_3105" d="M0 0L110 0" class="cls-4" transform="translate(285.5 173.8)"/>
                <path id="Line_3106" d="M0 0L11 0" class="cls-4" transform="translate(406.5 173.8)"/>
                <path id="Line_3107" d="M0 0L39 0" class="cls-4" transform="translate(430.5 173.8)"/>
                <path id="Path_8066" d="M11.1 80v.8h-3V80" class="cls-7"/>
                <path id="Line_3108" d="M0 0L34 0" class="cls-7" transform="translate(40 83.7)"/>
                <path id="Line_3109" d="M0 0L27.4 0" class="cls-7" transform="translate(0 83.7)"/>
                <path id="Path_8067" d="M56.3 58.6A28.8 28.8 0 0 1 65.9 80" class="cls-7"/>
                <path id="Path_8068" d="M8.1 80a28.9 28.9 0 0 1 46.4-22.9" class="cls-7"/>
                <path id="Path_8069" d="M47.4 48.4a33.2 33.2 0 0 1 6.7 3" class="cls-2"/>
                <path id="Path_8070" d="M7.6 64.5a33.3 33.3 0 0 1 36.8-16.9" class="cls-2"/>
                <path id="Path_8071" d="M50.3 64.8A22.5 22.5 0 0 1 56.2 80" class="cls-7"/>
                <path id="Path_8072" d="M11.1 80a22.6 22.6 0 0 1 37-17.4" class="cls-7"/>
                <path id="Path_8073" d="M65.9 80v.8h-9.7V80" class="cls-7"/>
                <circle id="Ellipse_244" cx="7.4" cy="7.4" r="7.4" class="cls-7" transform="translate(26.3 72.6)"/>
                <path id="Path_8074" d="M29.2 80a4.4 4.4 0 1 1 4.4 4.4" class="cls-2"/>
                <path id="Path_8075" d="M36.3 73.4l24.8-22.2 1.1 1L40 77" class="cls-2"/>
                <path id="Line_3110" d="M0 4.4L8 0" class="cls-2" transform="translate(53.2 64.5)"/>
                <path id="Line_3111" d="M0 2.4L9.6 0" class="cls-2" transform="translate(55.5 72.2)"/>
                <path id="Path_8076" d="M275.4 181.3v-41a1.8 1.8 0 0 0-2-1.6h-77.7a1.8 1.8 0 0 0-2 1.6v41" class="cls-2"/>
                <path id="Path_8077" d="M271.5 186a8.3 8.3 0 0 0 4.9-1.6l.3-.2v-4.1h-84.3v4.1l.3.2a8.3 8.3 0 0 0 4.9 1.6z" class="cls-6"/>
                <path id="Path_8078" d="M218.9 112.8c-.2 7.1 2.4 15.5 14.9 15.5s14.9-8 15.4-15.5" class="cls-8"/>
                <path id="Path_8079" d="M226.8 100.3s9.2 5 17.6 3.4c0 0 2.7 10.8 5.8 9.6 1.4-.5 4.5-8.3 1.8-13.8s1.5-5.6-.6-11.4c-.7-2-7.7 3.3-9.8 2.2a21.8 21.8 0 0 0-8.4-2.2 20.2 20.2 0 0 0-11.1 3.4c-3.2 2.5-5.2 4.2-6.4 10.1-.6 3.1-.1 12.4 3.4 12.9.9.1-1.6-4.9 2.9-7.7s1.2-9.7 4.8-6.5z" class="cls-8"/>
                <path id="Path_8080" d="M239.8 135.6l2.7-5.5v-3.5" class="cls-8"/>
                <path id="Path_8081" d="M225.2 126.6v3.5l4.1 5.5" class="cls-8"/>
                <path id="Path_8082" d="M264.8 138.7c-6.6-5.9-19-8.8-22.2-9.2" class="cls-8"/>
                <path id="Path_8083" d="M225.2 129.2c-3.7.4-17 3.6-21 9.5" class="cls-8"/>
                <path id="Path_8084" d="M240.1 91.9c-1.1 1-4.6 1.9-7.6 1.9" class="cls-8"/>
                <path id="Path_8085" d="M428.6 78a11 11 0 1 1 11 11 11 11 0 0 1-11-11" class="cls-2"/>
                <path id="Path_8086" d="M420.6 109h37.9a20.2 20.2 0 0 0-9.3-17.2 18.2 18.2 0 0 0-9.7-2.8c-10.4 0-18.9 9-18.9 20z" class="cls-4"/>
                <path id="Path_8087" d="M410.6 43a11 11 0 1 1 11 11 11 11 0 0 1-11-11" class="cls-4"/>
                <path id="Path_8088" d="M421.6 74h-19s.2-19.4 19.4-20a19.5 19.5 0 0 1 13.1 5.2" class="cls-4"/>
                <path id="Path_8089" d="M443.6 43a11 11 0 1 1 11 11 11 11 0 0 1-11-11" class="cls-4"/>
                <path id="Path_8090" d="M455.6 74h19s-.2-19.4-19.4-20a19.5 19.5 0 0 0-13.1 5.2" class="cls-4"/>
            </g>
        </g>
    </g>
</svg>
